<svg width="289" height="149" xmlns="http://www.w3.org/2000/svg" fill="none">

 <g>
  <title>Layer 1</title>
  <path id="svg_1" stroke-linejoin="round" stroke-linecap="round" stroke-width="16" stroke-opacity="0.9" stroke="#000000" d="m44.9112,45.812c72.6338,-33.453 -48.2351,-53.601 -32.4771,-13.943c3.9563,9.952 114.4899,52.004 132.0679,62.321"/>
  <path id="svg_2" stroke-linejoin="round" stroke-linecap="round" stroke-width="16" stroke-opacity="0.9" stroke="#000000" d="m52.823,102.349c12.883,9.799 10.459,19.987 0.868,31.172c-10.7229,12.508 -48.8155,2.392 -38.5445,-14.721c8.4735,-14.122 111.4335,-64.303 132.9645,-83.137"/>
  <path id="svg_3" stroke-linejoin="round" stroke-linecap="round" stroke-width="16" stroke-opacity="0.9" stroke="#000000" d="m150.516,66.128c9.554,-0.602 19.251,-0.35 28.865,-0.35" opacity="0.50338"/>
  <path id="svg_4" stroke-linejoin="round" stroke-linecap="round" stroke-width="16" stroke-opacity="0.9" stroke="#000000" d="m204.637,66.452c9.264,-0.228 18.524,-0.444 27.662,-1.05" opacity="0.50338"/>
  <path id="svg_5" stroke-linejoin="round" stroke-linecap="round" stroke-width="16" stroke-opacity="0.9" stroke="#000000" d="m255.152,66.627c7.681,-0.137 15.253,-0.895 22.852,-1.4" opacity="0.50338"/>
 </g>
</svg>